<?xml version="1.0" encoding="UTF-8"?>
<!DOCTYPE svg PUBLIC "-//W3C//DTD SVG 1.1//EN" "http://www.w3.org/Graphics/SVG/1.1/DTD/svg11.dtd">
<svg version="1.1" xmlns="http://www.w3.org/2000/svg" xmlns:xlink="http://www.w3.org/1999/xlink" x="0px" y="0px" width="1200" height="500" viewBox="0, 0, 1200, 500">
  <g id="Background">
    <rect x="0" y="0" width="1200" height="500" fill="#000000" fill-opacity="0"/>
  </g>
  <g id="Layer 1">
    <g>
      <path d="M210.5,210.5 L210.5,111.5" fill-opacity="0" stroke="#006CA9" stroke-width="6" stroke-linecap="round" stroke-miterlimit="1"/>
      <path d="M216.5,111.5 L210.5,95.5 L204.5,111.5 z" fill="#006CA9" fill-opacity="1" stroke="#006CA9" stroke-width="6" stroke-opacity="1"/>
    </g>
    <g>
      <path d="M210.5,390.5 C111.089,390.5 30.5,309.911 30.5,210.5 C30.5,111.089 111.089,30.5 210.5,30.5 C309.911,30.5 390.5,111.089 390.5,210.5 C390.5,309.911 309.911,390.5 210.5,390.5 z M210.495,330.5 C276.767,330.5 330.491,276.774 330.491,210.5 C330.491,144.226 276.767,90.5 210.495,90.5 C144.223,90.5 90.499,144.226 90.499,210.5 C90.499,276.774 144.223,330.5 210.495,330.5 z" fill="#EBEDED"/>
      <path d="M210.5,390.5 C111.089,390.5 30.5,309.911 30.5,210.5 C30.5,111.089 111.089,30.5 210.5,30.5 C309.911,30.5 390.5,111.089 390.5,210.5 C390.5,309.911 309.911,390.5 210.5,390.5 z M210.495,330.5 C276.767,330.5 330.491,276.774 330.491,210.5 C330.491,144.226 276.767,90.5 210.495,90.5 C144.223,90.5 90.499,144.226 90.499,210.5 C90.499,276.774 144.223,330.5 210.495,330.5 z" fill-opacity="0" stroke="#294270" stroke-width="2"/>
    </g>
    <g>
      <path d="M60.5,240.5 C43.931,240.5 30.5,227.069 30.5,210.5 C30.5,193.931 43.931,180.5 60.5,180.5 C77.069,180.5 90.5,193.931 90.5,210.5 C90.5,227.069 77.069,240.5 60.5,240.5 z" fill="#FABA00"/>
      <path d="M60.5,240.5 C43.931,240.5 30.5,227.069 30.5,210.5 C30.5,193.931 43.931,180.5 60.5,180.5 C77.069,180.5 90.5,193.931 90.5,210.5 C90.5,227.069 77.069,240.5 60.5,240.5 z" fill-opacity="0" stroke="#294270" stroke-width="2"/>
    </g>
    <g>
      <path d="M311.481,95.596 C303.197,109.945 284.849,114.861 270.5,106.577 C256.151,98.293 251.235,79.945 259.519,65.596 C267.803,51.247 286.151,46.331 300.5,54.615 C314.849,62.9 319.765,81.247 311.481,95.596 z" fill="#FABA00"/>
      <path d="M311.481,95.596 C303.197,109.945 284.849,114.861 270.5,106.577 C256.151,98.293 251.235,79.945 259.519,65.596 C267.803,51.247 286.151,46.331 300.5,54.615 C314.849,62.9 319.765,81.247 311.481,95.596 z" fill-opacity="0" stroke="#294270" stroke-width="2"/>
    </g>
    <g>
      <path d="M210.5,90.5 C193.931,90.5 180.5,77.069 180.5,60.5 C180.5,43.931 193.931,30.5 210.5,30.5 C227.069,30.5 240.5,43.931 240.5,60.5 C240.5,77.069 227.069,90.5 210.5,90.5 z" fill="#8FC7ED"/>
      <path d="M210.5,90.5 C193.931,90.5 180.5,77.069 180.5,60.5 C180.5,43.931 193.931,30.5 210.5,30.5 C227.069,30.5 240.5,43.931 240.5,60.5 C240.5,77.069 227.069,90.5 210.5,90.5 z" fill-opacity="0" stroke="#294270" stroke-width="2"/>
    </g>
    <g>
      <path d="M210.5,390.5 C193.931,390.5 180.5,377.069 180.5,360.5 C180.5,343.931 193.931,330.5 210.5,330.5 C227.069,330.5 240.5,343.931 240.5,360.5 C240.5,377.069 227.069,390.5 210.5,390.5 z" fill="#FABA00"/>
      <path d="M210.5,390.5 C193.931,390.5 180.5,377.069 180.5,360.5 C180.5,343.931 193.931,330.5 210.5,330.5 C227.069,330.5 240.5,343.931 240.5,360.5 C240.5,377.069 227.069,390.5 210.5,390.5 z" fill-opacity="0" stroke="#294270" stroke-width="2"/>
    </g>
    <g>
      <path d="M355.404,161.481 C341.055,169.765 322.707,164.849 314.423,150.5 C306.139,136.151 311.055,117.804 325.404,109.519 C339.753,101.235 358.1,106.151 366.385,120.5 C374.669,134.849 369.753,153.196 355.404,161.481 z" fill="#FABA00"/>
      <path d="M355.404,161.481 C341.055,169.765 322.707,164.849 314.423,150.5 C306.139,136.151 311.055,117.804 325.404,109.519 C339.753,101.235 358.1,106.151 366.385,120.5 C374.669,134.849 369.753,153.196 355.404,161.481 z" fill-opacity="0" stroke="#294270" stroke-width="2"/>
    </g>
    <g>
      <path d="M386.481,225.5 C378.197,239.849 359.849,244.765 345.5,236.481 C331.151,228.197 326.235,209.849 334.519,195.5 C342.804,181.151 361.151,176.235 375.5,184.519 C389.849,192.804 394.765,211.151 386.481,225.5 z" fill="#FABA00"/>
      <path d="M386.481,225.5 C378.197,239.849 359.849,244.765 345.5,236.481 C331.151,228.197 326.235,209.849 334.519,195.5 C342.804,181.151 361.151,176.235 375.5,184.519 C389.849,192.804 394.765,211.151 386.481,225.5 z" fill-opacity="0" stroke="#294270" stroke-width="2"/>
    </g>
    <g>
      <path d="M325.404,311.481 C311.055,303.197 306.139,284.849 314.423,270.5 C322.707,256.151 341.055,251.235 355.404,259.519 C369.753,267.803 374.669,286.151 366.385,300.5 C358.1,314.849 339.753,319.765 325.404,311.481 z" fill="#8FC7ED"/>
      <path d="M325.404,311.481 C311.055,303.197 306.139,284.849 314.423,270.5 C322.707,256.151 341.055,251.235 355.404,259.519 C369.753,267.803 374.669,286.151 366.385,300.5 C358.1,314.849 339.753,319.765 325.404,311.481 z" fill-opacity="0" stroke="#294270" stroke-width="2"/>
    </g>
    <g>
      <path d="M259.519,355.404 C251.235,341.055 256.151,322.707 270.5,314.423 C284.849,306.139 303.197,311.055 311.481,325.404 C319.765,339.753 314.849,358.1 300.5,366.385 C286.151,374.669 267.803,369.753 259.519,355.404 z" fill="#8FC7ED"/>
      <path d="M259.519,355.404 C251.235,341.055 256.151,322.707 270.5,314.423 C284.849,306.139 303.197,311.055 311.481,325.404 C319.765,339.753 314.849,358.1 300.5,366.385 C286.151,374.669 267.803,369.753 259.519,355.404 z" fill-opacity="0" stroke="#294270" stroke-width="2"/>
    </g>
    <g>
      <path d="M109.927,95.596 C118.254,109.945 136.695,114.861 151.117,106.577 C165.539,98.293 170.481,79.945 162.154,65.596 C153.827,51.247 135.386,46.331 120.964,54.615 C106.542,62.9 101.601,81.247 109.927,95.596 z" fill="#8FC7ED"/>
      <path d="M109.927,95.596 C118.254,109.945 136.695,114.861 151.117,106.577 C165.539,98.293 170.481,79.945 162.154,65.596 C153.827,51.247 135.386,46.331 120.964,54.615 C106.542,62.9 101.601,81.247 109.927,95.596 z" fill-opacity="0" stroke="#294270" stroke-width="2"/>
    </g>
    <g>
      <path d="M65.78,161.481 C80.202,169.765 98.644,164.849 106.97,150.5 C115.297,136.151 110.355,117.804 95.933,109.519 C81.511,101.235 63.07,106.151 54.743,120.5 C46.417,134.849 51.358,153.196 65.78,161.481 z" fill="#FABA00"/>
      <path d="M65.78,161.481 C80.202,169.765 98.644,164.849 106.97,150.5 C115.297,136.151 110.355,117.804 95.933,109.519 C81.511,101.235 63.07,106.151 54.743,120.5 C46.417,134.849 51.358,153.196 65.78,161.481 z" fill-opacity="0" stroke="#294270" stroke-width="2"/>
    </g>
    <g>
      <path d="M95.933,311.481 C110.355,303.197 115.297,284.849 106.97,270.5 C98.644,256.151 80.202,251.235 65.78,259.519 C51.358,267.803 46.417,286.151 54.743,300.5 C63.07,314.849 81.511,319.765 95.933,311.481 z" fill="#FABA00"/>
      <path d="M95.933,311.481 C110.355,303.197 115.297,284.849 106.97,270.5 C98.644,256.151 80.202,251.235 65.78,259.519 C51.358,267.803 46.417,286.151 54.743,300.5 C63.07,314.849 81.511,319.765 95.933,311.481 z" fill-opacity="0" stroke="#294270" stroke-width="2"/>
    </g>
    <g>
      <path d="M162.154,355.404 C170.481,341.055 165.539,322.707 151.117,314.423 C136.695,306.139 118.254,311.055 109.927,325.404 C101.601,339.753 106.542,358.1 120.964,366.385 C135.386,374.669 153.827,369.753 162.154,355.404 z" fill="#8FC7ED"/>
      <path d="M162.154,355.404 C170.481,341.055 165.539,322.707 151.117,314.423 C136.695,306.139 118.254,311.055 109.927,325.404 C101.601,339.753 106.542,358.1 120.964,366.385 C135.386,374.669 153.827,369.753 162.154,355.404 z" fill-opacity="0" stroke="#294270" stroke-width="2"/>
    </g>
    <g>
      <path d="M600.497,210.5 L649.997,124.763" fill-opacity="0" stroke="#006CA9" stroke-width="6" stroke-linecap="round" stroke-miterlimit="1"/>
      <path d="M655.194,127.763 L657.997,110.907 L644.801,121.763 z" fill="#006CA9" fill-opacity="1" stroke="#006CA9" stroke-width="6" stroke-opacity="1"/>
    </g>
    <g>
      <path d="M510.497,366.385 C424.405,316.679 394.907,206.593 444.613,120.5 C494.319,34.407 604.405,4.91 690.497,54.615 C776.59,104.321 806.088,214.407 756.382,300.5 C706.676,386.593 596.59,416.09 510.497,366.385 z M540.493,314.421 C597.886,347.556 671.276,327.891 704.413,270.495 C737.55,213.1 717.886,139.71 660.493,106.574 C603.1,73.439 529.711,93.104 496.574,150.5 C463.437,207.895 483.1,281.285 540.493,314.421 z" fill="#EBEDED"/>
      <path d="M510.497,366.385 C424.405,316.679 394.907,206.593 444.613,120.5 C494.319,34.407 604.405,4.91 690.497,54.615 C776.59,104.321 806.088,214.407 756.382,300.5 C706.676,386.593 596.59,416.09 510.497,366.385 z M540.493,314.421 C597.886,347.556 671.276,327.891 704.413,270.495 C737.55,213.1 717.886,139.71 660.493,106.574 C603.1,73.439 529.711,93.104 496.574,150.5 C463.437,207.895 483.1,281.285 540.493,314.421 z" fill-opacity="0" stroke="#294270" stroke-width="2"/>
    </g>
    <g>
      <path d="M455.594,161.481 C441.245,153.196 436.329,134.849 444.613,120.5 C452.897,106.151 471.245,101.235 485.594,109.519 C499.942,117.804 504.859,136.151 496.574,150.5 C488.29,164.849 469.942,169.765 455.594,161.481 z" fill="#FABA00"/>
      <path d="M455.594,161.481 C441.245,153.196 436.329,134.849 444.613,120.5 C452.897,106.151 471.245,101.235 485.594,109.519 C499.942,117.804 504.859,136.151 496.574,150.5 C488.29,164.849 469.942,169.765 455.594,161.481 z" fill-opacity="0" stroke="#294270" stroke-width="2"/>
    </g>
    <g>
      <path d="M745.401,161.481 C731.053,169.765 712.705,164.849 704.421,150.5 C696.136,136.151 701.053,117.804 715.401,109.519 C729.75,101.235 748.098,106.151 756.382,120.5 C764.666,134.849 759.75,153.196 745.401,161.481 z" fill="#FABA00"/>
      <path d="M745.401,161.481 C731.053,169.765 712.705,164.849 704.421,150.5 C696.136,136.151 701.053,117.804 715.401,109.519 C729.75,101.235 748.098,106.151 756.382,120.5 C764.666,134.849 759.75,153.196 745.401,161.481 z" fill-opacity="0" stroke="#294270" stroke-width="2"/>
    </g>
    <g>
      <path d="M660.497,106.577 C646.149,98.293 641.232,79.945 649.517,65.596 C657.801,51.247 676.149,46.331 690.497,54.615 C704.846,62.9 709.763,81.247 701.478,95.596 C693.194,109.945 674.846,114.861 660.497,106.577 z" fill="#8FC7ED"/>
      <path d="M660.497,106.577 C646.149,98.293 641.232,79.945 649.517,65.596 C657.801,51.247 676.149,46.331 690.497,54.615 C704.846,62.9 709.763,81.247 701.478,95.596 C693.194,109.945 674.846,114.861 660.497,106.577 z" fill-opacity="0" stroke="#294270" stroke-width="2"/>
    </g>
    <g>
      <path d="M510.497,366.385 C496.149,358.1 491.232,339.753 499.517,325.404 C507.801,311.055 526.149,306.139 540.497,314.423 C554.846,322.707 559.763,341.055 551.478,355.404 C543.194,369.753 524.846,374.669 510.497,366.385 z" fill="#FABA00"/>
      <path d="M510.497,366.385 C496.149,358.1 491.232,339.753 499.517,325.404 C507.801,311.055 526.149,306.139 540.497,314.423 C554.846,322.707 559.763,341.055 551.478,355.404 C543.194,369.753 524.846,374.669 510.497,366.385 z" fill-opacity="0" stroke="#294270" stroke-width="2"/>
    </g>
    <g>
      <path d="M750.497,240.5 C733.929,240.5 720.497,227.069 720.497,210.5 C720.497,193.931 733.929,180.5 750.497,180.5 C767.066,180.5 780.497,193.931 780.497,210.5 C780.497,227.069 767.066,240.5 750.497,240.5 z" fill="#FABA00"/>
      <path d="M750.497,240.5 C733.929,240.5 720.497,227.069 720.497,210.5 C720.497,193.931 733.929,180.5 750.497,180.5 C767.066,180.5 780.497,193.931 780.497,210.5 C780.497,227.069 767.066,240.5 750.497,240.5 z" fill-opacity="0" stroke="#294270" stroke-width="2"/>
    </g>
    <g>
      <path d="M745.401,311.481 C731.053,319.765 712.705,314.849 704.421,300.5 C696.136,286.151 701.053,267.804 715.401,259.519 C729.75,251.235 748.098,256.151 756.382,270.5 C764.666,284.849 759.75,303.197 745.401,311.481 z" fill="#FABA00"/>
      <path d="M745.401,311.481 C731.053,319.765 712.705,314.849 704.421,300.5 C696.136,286.151 701.053,267.804 715.401,259.519 C729.75,251.235 748.098,256.151 756.382,270.5 C764.666,284.849 759.75,303.197 745.401,311.481 z" fill-opacity="0" stroke="#294270" stroke-width="2"/>
    </g>
    <g>
      <path d="M649.517,355.404 C641.232,341.055 646.149,322.707 660.497,314.423 C674.846,306.139 693.194,311.055 701.478,325.404 C709.763,339.753 704.846,358.1 690.497,366.385 C676.149,374.669 657.801,369.753 649.517,355.404 z" fill="#8FC7ED"/>
      <path d="M649.517,355.404 C641.232,341.055 646.149,322.707 660.497,314.423 C674.846,306.139 693.194,311.055 701.478,325.404 C709.763,339.753 704.846,358.1 690.497,366.385 C676.149,374.669 657.801,369.753 649.517,355.404 z" fill-opacity="0" stroke="#294270" stroke-width="2"/>
    </g>
    <g>
      <path d="M570.497,360.5 C570.497,343.931 583.929,330.5 600.497,330.5 C617.066,330.5 630.497,343.931 630.497,360.5 C630.497,377.069 617.066,390.5 600.497,390.5 C583.929,390.5 570.497,377.069 570.497,360.5 z" fill="#8FC7ED"/>
      <path d="M570.497,360.5 C570.497,343.931 583.929,330.5 600.497,330.5 C617.066,330.5 630.497,343.931 630.497,360.5 C630.497,377.069 617.066,390.5 600.497,390.5 C583.929,390.5 570.497,377.069 570.497,360.5 z" fill-opacity="0" stroke="#294270" stroke-width="2"/>
    </g>
    <g>
      <path d="M570.851,60.704 C570.888,77.294 584.4,90.772 601.032,90.809 C617.664,90.845 631.117,77.426 631.081,60.837 C631.044,44.247 617.531,30.769 600.899,30.732 C584.268,30.695 570.814,44.114 570.851,60.704 z" fill="#8FC7ED"/>
      <path d="M570.851,60.704 C570.888,77.294 584.4,90.772 601.032,90.809 C617.664,90.845 631.117,77.426 631.081,60.837 C631.044,44.247 617.531,30.769 600.899,30.732 C584.268,30.695 570.814,44.114 570.851,60.704 z" fill-opacity="0" stroke="#294270" stroke-width="2"/>
    </g>
    <g>
      <path d="M499.676,95.688 C508.024,110.074 526.453,115.037 540.838,106.774 C555.223,98.51 560.118,80.15 551.77,65.765 C543.423,51.379 524.994,46.416 510.608,54.679 C496.223,62.943 491.328,81.303 499.676,95.688 z" fill="#FABA00"/>
      <path d="M499.676,95.688 C508.024,110.074 526.453,115.037 540.838,106.774 C555.223,98.51 560.118,80.15 551.77,65.765 C543.423,51.379 524.994,46.416 510.608,54.679 C496.223,62.943 491.328,81.303 499.676,95.688 z" fill-opacity="0" stroke="#294270" stroke-width="2"/>
    </g>
    <g>
      <path d="M450.789,240.669 C467.421,240.705 480.875,227.286 480.838,210.697 C480.801,194.107 467.289,180.629 450.657,180.592 C434.025,180.555 420.572,193.974 420.608,210.564 C420.645,227.154 434.158,240.632 450.789,240.669 z" fill="#FABA00"/>
      <path d="M450.789,240.669 C467.421,240.705 480.875,227.286 480.838,210.697 C480.801,194.107 467.289,180.629 450.657,180.592 C434.025,180.555 420.572,193.974 420.608,210.564 C420.645,227.154 434.158,240.632 450.789,240.669 z" fill-opacity="0" stroke="#294270" stroke-width="2"/>
    </g>
    <g>
      <path d="M486.177,311.817 C500.562,303.554 505.457,285.194 497.109,270.809 C488.761,256.423 470.333,251.46 455.947,259.723 C441.562,267.986 436.667,286.347 445.015,300.732 C453.363,315.117 471.791,320.081 486.177,311.817 z" fill="#8FC7ED"/>
      <path d="M486.177,311.817 C500.562,303.554 505.457,285.194 497.109,270.809 C488.761,256.423 470.333,251.46 455.947,259.723 C441.562,267.986 436.667,286.347 445.015,300.732 C453.363,315.117 471.791,320.081 486.177,311.817 z" fill-opacity="0" stroke="#294270" stroke-width="2"/>
    </g>
    <g>
      <path d="M990.504,210.502 L904.767,260.002" fill-opacity="0" stroke="#006CA9" stroke-width="6" stroke-linecap="round" stroke-miterlimit="1"/>
      <path d="M901.767,254.806 L890.911,268.002 L907.767,265.198 z" fill="#006CA9" fill-opacity="1" stroke="#006CA9" stroke-width="6" stroke-opacity="1"/>
    </g>
    <g>
      <path d="M1146.388,120.502 C1196.094,206.595 1166.596,316.681 1080.504,366.387 C994.411,416.092 884.325,386.595 834.619,300.502 C784.914,214.41 814.411,104.323 900.504,54.618 C986.596,4.912 1096.683,34.41 1146.388,120.502 z M1094.429,150.507 C1061.293,93.113 987.903,73.45 930.508,106.587 C873.113,139.724 853.447,213.113 886.583,270.507 C919.719,327.9 993.109,347.563 1050.504,314.426 C1107.899,281.289 1127.565,207.9 1094.429,150.507 z" fill="#EBEDED"/>
      <path d="M1146.388,120.502 C1196.094,206.595 1166.596,316.681 1080.504,366.387 C994.411,416.092 884.325,386.595 834.619,300.502 C784.914,214.41 814.411,104.323 900.504,54.618 C986.596,4.912 1096.683,34.41 1146.388,120.502 z M1094.429,150.507 C1061.293,93.113 987.903,73.45 930.508,106.587 C873.113,139.724 853.447,213.113 886.583,270.507 C919.719,327.9 993.109,347.563 1050.504,314.426 C1107.899,281.289 1127.565,207.9 1094.429,150.507 z" fill-opacity="0" stroke="#294270" stroke-width="2"/>
    </g>
    <g>
      <path d="M1091.484,325.406 C1099.769,339.755 1094.853,358.102 1080.504,366.387 C1066.155,374.671 1047.807,369.755 1039.523,355.406 C1031.239,341.057 1036.155,322.71 1050.504,314.425 C1064.853,306.141 1083.2,311.057 1091.484,325.406 z" fill="#FABA00"/>
      <path d="M1091.484,325.406 C1099.769,339.755 1094.853,358.102 1080.504,366.387 C1066.155,374.671 1047.807,369.755 1039.523,355.406 C1031.239,341.057 1036.155,322.71 1050.504,314.425 C1064.853,306.141 1083.2,311.057 1091.484,325.406 z" fill-opacity="0" stroke="#294270" stroke-width="2"/>
    </g>
    <g>
      <path d="M840.504,180.502 C857.072,180.502 870.504,193.934 870.504,210.502 C870.504,227.071 857.072,240.502 840.504,240.502 C823.935,240.502 810.504,227.071 810.504,210.502 C810.504,193.934 823.935,180.502 840.504,180.502 z" fill="#FABA00"/>
      <path d="M840.504,180.502 C857.072,180.502 870.504,193.934 870.504,210.502 C870.504,227.071 857.072,240.502 840.504,240.502 C823.935,240.502 810.504,227.071 810.504,210.502 C810.504,193.934 823.935,180.502 840.504,180.502 z" fill-opacity="0" stroke="#294270" stroke-width="2"/>
    </g>
    <g>
      <path d="M886.581,270.502 C894.865,284.851 889.949,303.199 875.6,311.483 C861.251,319.767 842.903,314.851 834.619,300.502 C826.335,286.153 831.251,267.806 845.6,259.521 C859.949,251.237 878.296,256.153 886.581,270.502 z" fill="#8FC7ED"/>
      <path d="M886.581,270.502 C894.865,284.851 889.949,303.199 875.6,311.483 C861.251,319.767 842.903,314.851 834.619,300.502 C826.335,286.153 831.251,267.806 845.6,259.521 C859.949,251.237 878.296,256.153 886.581,270.502 z" fill-opacity="0" stroke="#294270" stroke-width="2"/>
    </g>
    <g>
      <path d="M1146.388,120.502 C1154.673,134.851 1149.756,153.199 1135.408,161.483 C1121.059,169.767 1102.711,164.851 1094.427,150.502 C1086.143,136.153 1091.059,117.806 1105.408,109.521 C1119.756,101.237 1138.104,106.153 1146.388,120.502 z" fill="#FABA00"/>
      <path d="M1146.388,120.502 C1154.673,134.851 1149.756,153.199 1135.408,161.483 C1121.059,169.767 1102.711,164.851 1094.427,150.502 C1086.143,136.153 1091.059,117.806 1105.408,109.521 C1119.756,101.237 1138.104,106.153 1146.388,120.502 z" fill-opacity="0" stroke="#294270" stroke-width="2"/>
    </g>
    <g>
      <path d="M875.6,109.521 C889.949,117.806 894.865,136.153 886.581,150.502 C878.296,164.851 859.949,169.767 845.6,161.483 C831.251,153.199 826.335,134.851 834.619,120.502 C842.903,106.153 861.251,101.237 875.6,109.521 z" fill="#FABA00"/>
      <path d="M875.6,109.521 C889.949,117.806 894.865,136.153 886.581,150.502 C878.296,164.851 859.949,169.767 845.6,161.483 C831.251,153.199 826.335,134.851 834.619,120.502 C842.903,106.153 861.251,101.237 875.6,109.521 z" fill-opacity="0" stroke="#294270" stroke-width="2"/>
    </g>
    <g>
      <path d="M915.504,50.598 C932.072,50.598 945.504,64.03 945.504,80.598 C945.504,97.167 932.072,110.598 915.504,110.598 C898.935,110.598 885.504,97.167 885.504,80.598 C885.504,64.03 898.935,50.598 915.504,50.598 z" fill="#FABA00"/>
      <path d="M915.504,50.598 C932.072,50.598 945.504,64.03 945.504,80.598 C945.504,97.167 932.072,110.598 915.504,110.598 C898.935,110.598 885.504,97.167 885.504,80.598 C885.504,64.03 898.935,50.598 915.504,50.598 z" fill-opacity="0" stroke="#294270" stroke-width="2"/>
    </g>
    <g>
      <path d="M1020.504,60.502 C1020.504,77.071 1007.072,90.502 990.504,90.502 C973.935,90.502 960.504,77.071 960.504,60.502 C960.504,43.934 973.935,30.502 990.504,30.502 C1007.072,30.502 1020.504,43.934 1020.504,60.502 z" fill="#8FC7ED"/>
      <path d="M1020.504,60.502 C1020.504,77.071 1007.072,90.502 990.504,90.502 C973.935,90.502 960.504,77.071 960.504,60.502 C960.504,43.934 973.935,30.502 990.504,30.502 C1007.072,30.502 1020.504,43.934 1020.504,60.502 z" fill-opacity="0" stroke="#294270" stroke-width="2"/>
    </g>
    <g>
      <path d="M1091.484,95.598 C1083.2,109.947 1064.853,114.863 1050.504,106.579 C1036.155,98.295 1031.239,79.947 1039.523,65.598 C1047.807,51.25 1066.155,46.333 1080.504,54.618 C1094.853,62.902 1099.769,81.25 1091.484,95.598 z" fill="#8FC7ED"/>
      <path d="M1091.484,95.598 C1083.2,109.947 1064.853,114.863 1050.504,106.579 C1036.155,98.295 1031.239,79.947 1039.523,65.598 C1047.807,51.25 1066.155,46.333 1080.504,54.618 C1094.853,62.902 1099.769,81.25 1091.484,95.598 z" fill-opacity="0" stroke="#294270" stroke-width="2"/>
    </g>
    <g>
      <path d="M941.28,355.052 C949.544,340.667 944.581,322.238 930.195,313.891 C915.81,305.543 897.45,310.438 889.186,324.823 C880.923,339.208 885.886,357.637 900.272,365.985 C914.657,374.332 933.017,369.438 941.28,355.052 z" fill="#8FC7ED"/>
      <path d="M941.28,355.052 C949.544,340.667 944.581,322.238 930.195,313.891 C915.81,305.543 897.45,310.438 889.186,324.823 C880.923,339.208 885.886,357.637 900.272,365.985 C914.657,374.332 933.017,369.438 941.28,355.052 z" fill-opacity="0" stroke="#294270" stroke-width="2"/>
    </g>
    <g>
      <path d="M1020.412,360.343 C1020.375,343.711 1006.897,330.198 990.307,330.162 C973.718,330.125 960.299,343.578 960.335,360.21 C960.372,376.842 973.85,390.355 990.44,390.391 C1007.029,390.428 1020.448,376.975 1020.412,360.343 z" fill="#FABA00"/>
      <path d="M1020.412,360.343 C1020.375,343.711 1006.897,330.198 990.307,330.162 C973.718,330.125 960.299,343.578 960.335,360.21 C960.372,376.842 973.85,390.355 990.44,390.391 C1007.029,390.428 1020.448,376.975 1020.412,360.343 z" fill-opacity="0" stroke="#294270" stroke-width="2"/>
    </g>
    <g>
      <path d="M1135.239,259.229 C1120.854,250.882 1102.493,255.776 1094.23,270.162 C1085.967,284.547 1090.93,302.976 1105.316,311.323 C1119.701,319.671 1138.061,314.777 1146.324,300.391 C1154.587,286.006 1149.624,267.577 1135.239,259.229 z" fill="#FABA00"/>
      <path d="M1135.239,259.229 C1120.854,250.882 1102.493,255.776 1094.23,270.162 C1085.967,284.547 1090.93,302.976 1105.316,311.323 C1119.701,319.671 1138.061,314.777 1146.324,300.391 C1154.587,286.006 1149.624,267.577 1135.239,259.229 z" fill-opacity="0" stroke="#294270" stroke-width="2"/>
    </g>
    <g>
      <path d="M1140.167,179.919 C1123.578,179.883 1110.159,193.336 1110.195,209.968 C1110.232,226.6 1123.71,240.112 1140.3,240.149 C1156.889,240.185 1170.308,226.732 1170.272,210.1 C1170.235,193.468 1156.757,179.956 1140.167,179.919 z" fill="#8FC7ED"/>
      <path d="M1140.167,179.919 C1123.578,179.883 1110.159,193.336 1110.195,209.968 C1110.232,226.6 1123.71,240.112 1140.3,240.149 C1156.889,240.185 1170.308,226.732 1170.272,210.1 C1170.235,193.468 1156.757,179.956 1140.167,179.919 z" fill-opacity="0" stroke="#294270" stroke-width="2"/>
    </g>
    <text transform="matrix(1, 0, 0, 1, 285, 80.096)">
      <tspan x="-12.797" y="13.5" font-family="Verdana-Bold" font-size="36" fill="#294270">1</tspan>
    </text>
    <text transform="matrix(1, 0, 0, 1, 210, 60.27)">
      <tspan x="-12.797" y="13.5" font-family="Verdana-Bold" font-size="36" fill="#294270">0</tspan>
    </text>
    <text transform="matrix(1, 0, 0, 1, 339.904, 135.002)">
      <tspan x="-12.797" y="13.5" font-family="Verdana-Bold" font-size="36" fill="#294270">2</tspan>
    </text>
    <text transform="matrix(1, 0, 0, 1, 360, 210.13)">
      <tspan x="-12.797" y="13.5" font-family="Verdana-Bold" font-size="36" fill="#294270">3</tspan>
    </text>
    <text transform="matrix(1, 0, 0, 1, 339.904, 284.776)">
      <tspan x="-12.797" y="13.5" font-family="Verdana-Bold" font-size="36" fill="#294270">4</tspan>
    </text>
    <text transform="matrix(1, 0, 0, 1, 285, 339.438)">
      <tspan x="-12.797" y="13.5" font-family="Verdana-Bold" font-size="36" fill="#294270">5</tspan>
    </text>
    <text transform="matrix(1, 0, 0, 1, 210, 359.776)">
      <tspan x="-12.797" y="13.5" font-family="Verdana-Bold" font-size="36" fill="#294270">6</tspan>
    </text>
    <text transform="matrix(1, 0, 0, 1, 135.541, 339.906)">
      <tspan x="-12.797" y="13.5" font-family="Verdana-Bold" font-size="36" fill="#294270">7</tspan>
    </text>
    <text transform="matrix(1, 0, 0, 1, 80.357, 284.776)">
      <tspan x="-12.797" y="13.5" font-family="Verdana-Bold" font-size="36" fill="#294270">8</tspan>
    </text>
    <text transform="matrix(1, 0, 0, 1, 60, 210.13)">
      <tspan x="-12.797" y="13.5" font-family="Verdana-Bold" font-size="36" fill="#294270">9</tspan>
    </text>
    <text transform="matrix(1, 0, 0, 1, 80.357, 135)">
      <tspan x="-25.594" y="13.5" font-family="Verdana-Bold" font-size="36" fill="#294270">10</tspan>
    </text>
    <text transform="matrix(1, 0, 0, 1, 135.541, 80.096)">
      <tspan x="-25.594" y="13.5" font-family="Verdana-Bold" font-size="36" fill="#294270">11</tspan>
    </text>
    <text transform="matrix(1, 0, 0, 1, 675.466, 80.203)">
      <tspan x="-12.797" y="13.5" font-family="Verdana-Bold" font-size="36" fill="#294270">1</tspan>
    </text>
    <text transform="matrix(1, 0, 0, 1, 600.466, 60.377)">
      <tspan x="-12.797" y="13.5" font-family="Verdana-Bold" font-size="36" fill="#294270">0</tspan>
    </text>
    <text transform="matrix(1, 0, 0, 1, 730.37, 135.109)">
      <tspan x="-12.797" y="13.5" font-family="Verdana-Bold" font-size="36" fill="#294270">2</tspan>
    </text>
    <text transform="matrix(1, 0, 0, 1, 750.466, 210.237)">
      <tspan x="-12.797" y="13.5" font-family="Verdana-Bold" font-size="36" fill="#294270">3</tspan>
    </text>
    <text transform="matrix(1, 0, 0, 1, 730.37, 284.883)">
      <tspan x="-12.797" y="13.5" font-family="Verdana-Bold" font-size="36" fill="#294270">4</tspan>
    </text>
    <text transform="matrix(1, 0, 0, 1, 675.466, 339.545)">
      <tspan x="-12.797" y="13.5" font-family="Verdana-Bold" font-size="36" fill="#294270">5</tspan>
    </text>
    <text transform="matrix(1, 0, 0, 1, 600.466, 359.883)">
      <tspan x="-12.797" y="13.5" font-family="Verdana-Bold" font-size="36" fill="#294270">6</tspan>
    </text>
    <text transform="matrix(1, 0, 0, 1, 526.006, 340.013)">
      <tspan x="-12.797" y="13.5" font-family="Verdana-Bold" font-size="36" fill="#294270">7</tspan>
    </text>
    <text transform="matrix(1, 0, 0, 1, 470.823, 284.883)">
      <tspan x="-12.797" y="13.5" font-family="Verdana-Bold" font-size="36" fill="#294270">8</tspan>
    </text>
    <text transform="matrix(1, 0, 0, 1, 450.466, 210.237)">
      <tspan x="-12.797" y="13.5" font-family="Verdana-Bold" font-size="36" fill="#294270">9</tspan>
    </text>
    <text transform="matrix(1, 0, 0, 1, 470.823, 135.107)">
      <tspan x="-25.594" y="13.5" font-family="Verdana-Bold" font-size="36" fill="#294270">10</tspan>
    </text>
    <text transform="matrix(1, 0, 0, 1, 526.006, 80.203)">
      <tspan x="-25.594" y="13.5" font-family="Verdana-Bold" font-size="36" fill="#294270">11</tspan>
    </text>
    <text transform="matrix(1, 0, 0, 1, 1065.004, 80.31)">
      <tspan x="-12.797" y="13.5" font-family="Verdana-Bold" font-size="36" fill="#294270">1</tspan>
    </text>
    <text transform="matrix(1, 0, 0, 1, 990.004, 60.484)">
      <tspan x="-12.797" y="13.5" font-family="Verdana-Bold" font-size="36" fill="#294270">0</tspan>
    </text>
    <text transform="matrix(1, 0, 0, 1, 1119.908, 135.216)">
      <tspan x="-12.797" y="13.5" font-family="Verdana-Bold" font-size="36" fill="#294270">2</tspan>
    </text>
    <text transform="matrix(1, 0, 0, 1, 1140.004, 210.344)">
      <tspan x="-12.797" y="13.5" font-family="Verdana-Bold" font-size="36" fill="#294270">3</tspan>
    </text>
    <text transform="matrix(1, 0, 0, 1, 1119.908, 284.99)">
      <tspan x="-12.797" y="13.5" font-family="Verdana-Bold" font-size="36" fill="#294270">4</tspan>
    </text>
    <text transform="matrix(1, 0, 0, 1, 1065.004, 339.651)">
      <tspan x="-12.797" y="13.5" font-family="Verdana-Bold" font-size="36" fill="#294270">5</tspan>
    </text>
    <text transform="matrix(1, 0, 0, 1, 990.004, 359.99)">
      <tspan x="-12.797" y="13.5" font-family="Verdana-Bold" font-size="36" fill="#294270">6</tspan>
    </text>
    <text transform="matrix(1, 0, 0, 1, 915.544, 340.12)">
      <tspan x="-12.797" y="13.5" font-family="Verdana-Bold" font-size="36" fill="#294270">7</tspan>
    </text>
    <text transform="matrix(1, 0, 0, 1, 860.361, 284.99)">
      <tspan x="-12.797" y="13.5" font-family="Verdana-Bold" font-size="36" fill="#294270">8</tspan>
    </text>
    <text transform="matrix(1, 0, 0, 1, 840.004, 210.344)">
      <tspan x="-12.797" y="13.5" font-family="Verdana-Bold" font-size="36" fill="#294270">9</tspan>
    </text>
    <text transform="matrix(1, 0, 0, 1, 860.361, 135.214)">
      <tspan x="-25.594" y="13.5" font-family="Verdana-Bold" font-size="36" fill="#294270">10</tspan>
    </text>
    <text transform="matrix(1, 0, 0, 1, 915.544, 80.31)">
      <tspan x="-25.594" y="13.5" font-family="Verdana-Bold" font-size="36" fill="#294270">11</tspan>
    </text>
    <text transform="matrix(1, 0, 0, 1, 210, 445.966)">
      <tspan x="-99.598" y="9" font-family="Verdana-Bold" font-size="24" fill="#294270">Initial Position</tspan>
    </text>
    <text transform="matrix(1, 0, 0, 1, 989.873, 445.966)">
      <tspan x="-85.869" y="9" font-family="Verdana-Bold" font-size="24" fill="#294270">Rotated by 8</tspan>
    </text>
    <text transform="matrix(1, 0, 0, 1, 600.466, 445.966)">
      <tspan x="-85.869" y="9" font-family="Verdana-Bold" font-size="24" fill="#294270">Rotated by 1</tspan>
    </text>
  </g>
  <defs/>
</svg>
